<?xml version="1.0" encoding="utf-8" standalone="yes"?> <svg width="1000" height="1000" viewBox="-1 -1 27 27" xmlns="http://www.w3.org/2000/svg" shape-rendering="crispEdges" id="qr code"><rect id="qr background" fill-opacity="1" fill="rgb(255, 255, 255)" x="-1" y="-1" width="27" height="27"></rect><path fill-opacity="1" fill="rgb(0, 0, 0)" id="qr dark pixels" fill-rule="evenodd" d="M 9 0 L 10 0 L 10 2 L 11 2 L 11 1 L 13 1 L 13 2 L 12 2 L 12 3 L 14 3 L 14 4 L 13 4 L 13 5 L 12 5 L 12 4 L 11 4 L 11 3 L 10 3 L 10 4 L 8 4 L 8 3 L 9 3 L 9 2 L 8 2 L 8 1 L 9 1 z M 14 0 L 15 0 L 15 1 L 14 1 z M 15 1 L 16 1 L 16 3 L 15 3 z M 16 3 L 17 3 L 17 4 L 16 4 z M 10 4 L 11 4 L 11 7 L 10 7 z M 14 4 L 15 4 L 15 5 L 14 5 z M 8 5 L 9 5 L 9 7 L 8 7 z M 15 5 L 16 5 L 16 6 L 15 6 z M 12 6 L 13 6 L 13 8 L 11 8 L 11 7 L 12 7 z M 14 6 L 15 6 L 15 7 L 16 7 L 16 8 L 14 8 z M 16 6 L 17 6 L 17 7 L 16 7 z M 0 8 L 5 8 L 5 9 L 4 9 L 4 10 L 8 10 L 8 9 L 6 9 L 6 8 L 11 8 L 11 9 L 10 9 L 10 11 L 13 11 L 13 12 L 10 12 L 10 13 L 13 13 L 13 12 L 14 12 L 14 13 L 15 13 L 15 14 L 11 14 L 11 15 L 13 15 L 13 16 L 10 16 L 10 14 L 8 14 L 8 13 L 9 13 L 9 12 L 8 12 L 8 11 L 4 11 L 4 12 L 3 12 L 3 14 L 4 14 L 4 13 L 5 13 L 5 12 L 8 12 L 8 13 L 6 13 L 6 14 L 5 14 L 5 15 L 4 15 L 4 17 L 3 17 L 3 15 L 2 15 L 2 13 L 1 13 L 1 12 L 2 12 L 2 11 L 3 11 L 3 9 L 2 9 L 2 11 L 0 11 z M 13 8 L 14 8 L 14 9 L 15 9 L 15 10 L 11 10 L 11 9 L 13 9 z M 16 8 L 18 8 L 18 9 L 16 9 z M 19 8 L 20 8 L 20 10 L 22 10 L 22 11 L 20 11 L 20 12 L 21 12 L 21 13 L 20 13 L 20 14 L 21 14 L 21 13 L 22 13 L 22 15 L 21 15 L 21 16 L 19 16 L 19 13 L 18 13 L 18 12 L 17 12 L 17 11 L 18 11 L 18 10 L 19 10 z M 21 8 L 22 8 L 22 9 L 21 9 z M 23 8 L 24 8 L 24 10 L 25 10 L 25 13 L 24 13 L 24 14 L 25 14 L 25 16 L 24 16 L 24 15 L 23 15 L 23 13 L 22 13 L 22 12 L 24 12 L 24 11 L 23 11 z M 15 10 L 17 10 L 17 11 L 15 11 z M 14 11 L 15 11 L 15 12 L 14 12 z M 0 13 L 1 13 L 1 17 L 0 17 z M 6 14 L 8 14 L 8 15 L 9 15 L 9 16 L 10 16 L 10 17 L 13 17 L 13 20 L 12 20 L 12 18 L 9 18 L 9 19 L 8 19 L 8 17 L 5 17 L 5 16 L 7 16 L 7 15 L 6 15 z M 15 14 L 18 14 L 18 15 L 17 15 L 17 16 L 16 16 L 16 15 L 15 15 z M 14 15 L 15 15 L 15 16 L 14 16 z M 13 16 L 14 16 L 14 17 L 13 17 z M 22 16 L 23 16 L 23 17 L 22 17 z M 14 17 L 16 17 L 16 18 L 15 18 L 15 19 L 16 19 L 16 21 L 15 21 L 15 20 L 14 20 z M 21 17 L 22 17 L 22 18 L 21 18 z M 22 18 L 25 18 L 25 20 L 24 20 L 24 19 L 22 19 z M 9 19 L 10 19 L 10 20 L 9 20 z M 21 19 L 22 19 L 22 20 L 21 20 z M 8 20 L 9 20 L 9 21 L 10 21 L 10 20 L 11 20 L 11 21 L 13 21 L 13 22 L 10 22 L 10 23 L 9 23 L 9 25 L 8 25 z M 13 20 L 14 20 L 14 21 L 13 21 z M 22 20 L 24 20 L 24 21 L 25 21 L 25 25 L 17 25 L 17 24 L 15 24 L 15 23 L 18 23 L 18 24 L 19 24 L 19 23 L 21 23 L 21 22 L 20 22 L 20 21 L 22 21 zM 23 22 L 24 22 L 24 24 L 22 24 L 22 23 L 23 23 z M 14 21 L 15 21 L 15 23 L 13 23 L 13 22 L 14 22 z M 17 21 L 19 21 L 19 22 L 17 22 z M 10 23 L 11 23 L 11 24 L 10 24 z M 12 23 L 13 23 L 13 24 L 12 24 z M 11 24 L 12 24 L 12 25 L 11 25 z M 13 24 L 14 24 L 14 25 L 13 25 z"></path><path id="qr squares" d="M0,0h7h0v0v7v0h0h-7h0v0v-7v0h0zM1,1h5h0v0v5v0h0h-5h0v0v-5v0h0zM2,2h3h0v0v3v0h0h-3h0v0v-3v0h0z M18,0h7h0v0v7v0h0h-7h0v0v-7v0h0zM19,1h5h0v0v5v0h0h-5h0v0v-5v0h0zM20,2h3h0v0v3v0h0h-3h0v0v-3v0h0z M0,18h7h0v0v7v0h0h-7h0v0v-7v0h0zM1,19h5h0v0v5v0h0h-5h0v0v-5v0h0zM2,20h3h0v0v3v0h0h-3h0v0v-3v0h0zM16,16h5h0v0v5v0h0h-5h0v0v-5v0h0zM17,17h3h0v0v3v0h0h-3h0v0v-3v0h0zM18,18h1h0v0v1v0h0h-1h0v0v-1v0h0z" fill-rule="evenodd" fill-opacity="1" fill="rgb(0, 0, 0)"></path></svg>